<svg xmlns="http://www.w3.org/2000/svg" id="HANDSOME" viewBox="0 0 400 112.73"><style><![CDATA[
	.st0{fill:#807872;}
	.st1{fill:#EFE8DE;}
]]></style><path d="M341.92 109.4v-21l.6-22.03-6.93 43.04H324l-6.96-43 .6 22v21.1H302.3V13h18.77l8.72 56.5 8.7-56.5h18.7v96.45z" class="st1"/><path d="M355.28 14.96v92.45h-11.36v-19l1.45-52.1-11.5 71.2h-8.18l-11.5-71.2 1.4 52.2v19h-11.3V15h15l10.5 67.6 10.4-67.63h15m4-4h-22.5l-.5 3.4-6.5 42-6.5-42-.5-3.4h-22.5V111.4h19.3V95.1l2.1 12.95.5 3.37h15l.5-3.36 2.1-12.94v16.3H359V10.97z" class="st0"/><path d="M359.14 109.4V12.97h32.13V28.7h-15.85V53h13.74v15.36h-13.74V93.8h15.85v15.6z" class="st1"/><path d="M389.27 14.96V26.7h-15.85V55h13.74v11.36h-13.74V95.8h15.85v11.6h-28.13V14.97h28.13m4-4h-36.13V111.4h36.13V91.8h-15.85V70.33h13.74V50.98h-13.74V30.7h15.85V10.97z" class="st0"/><path d="M264.4 110.36c-.72 0-1.34-.04-1.83-.07l-1.44-.2.23-4h1.4c.55 0 1.77-.1 3.52-.3 1.66-.3 3.48-.8 5.27-1.6 2.1-.9 4.2-2.2 6.17-3.7 2.24-1.8 4.3-3.9 6.1-6.2 1.94-2.5 3.68-5.3 5.18-8.3 1.47-3 2.73-6.3 3.74-9.9.98-3.5 1.65-7.1 2-10.8.4-3.7.46-7.4.17-11-.2-3.7-.8-7.2-1.7-10.4-.8-3.3-2-6.4-3.4-9.2-1.4-2.9-3-5.3-4.7-7.2-1.7-2-3.4-3.6-5.3-4.9-1.5-1.1-3.1-2-4.8-2.6-.5-.2-1-.4-1.5-.5l-.4-.2-.6-.1-.8-.2-1.3-.2.5-4 1.4.1c.8.1 2.4.3 4.3.9 2.1.6 4.1 1.5 6 2.7 2.4 1.4 4.6 3.2 6.6 5.4 4.4 4.6 7.9 11.1 10 18.3 1.1 3.9 1.8 7.8 2.1 11.5.4 3.9.3 7.9-.1 12-.4 4-1.2 8-2.2 11.8-1 3.7-2.5 7.3-4.3 10.8-1.6 3.2-3.7 6.3-6 9.1-2.1 2.5-4.5 4.8-7.2 6.8-2.3 1.7-4.8 3-7.5 4-2.1.8-4.4 1.3-6.4 1.5-.8 0-1.6.1-2.4.1z" class="st1"/><path d="M270.38 17.13l1.38.13c.9.1 2.22.3 3.84.8 1.62.5 3.55 1.3 5.58 2.55 2.03 1.3 4.15 3 6.14 5.1 4.02 4.3 7.46 10.5 9.48 17.5 1 3.5 1.74 7.3 2.04 11.1.33 3.8.3 7.8-.1 11.7-.4 3.9-1.13 7.8-2.2 11.5-1.04 3.7-2.47 7.3-4.16 10.5-1.66 3.3-3.66 6.2-5.82 8.8-2.14 2.6-4.52 4.8-6.9 6.5-2.37 1.8-4.8 3-7.04 3.8-2.24.8-4.28 1.2-5.97 1.4-.83.1-1.57.1-2.23.1h-1.7l-1.38-.1h1.43c.9 0 2.2 0 3.84-.3 1.7-.2 3.7-.8 5.8-1.7s4.4-2.2 6.7-4c2.3-1.7 4.5-3.9 6.5-6.5 2-2.5 3.9-5.4 5.4-8.6 1.6-3.1 2.9-6.6 3.9-10.2 1.1-3.6 1.8-7.3 2.1-11.1.4-3.7.5-7.5.2-11.3-.2-3.7-.8-7.3-1.8-10.7-.9-3.4-2.1-6.6-3.6-9.5-1.5-2.9-3.1-5.5-5-7.6-1.8-2.1-3.8-3.9-5.7-5.2-1.8-1.3-3.7-2.2-5.3-2.8-.7-.3-1.5-.5-2.1-.7-.6-.1-1.1-.3-1.6-.3l-1.3-.3m.4-4l-1.1 7.8 1.4.3.7.2.6.2.4.1c.5.2.9.3 1.3.5h.1c1.6.6 3 1.3 4.4 2.3 1.7 1.2 3.4 2.7 5 4.6 1.6 1.8 3.1 4.1 4.5 6.8s2.5 5.6 3.3 8.7c.9 3.1 1.5 6.5 1.7 10 .3 3.5.2 7-.1 10.6-.3 3.6-1 7.1-1.9 10.4-1 3.5-2.2 6.7-3.6 9.5-1.4 3-3.1 5.6-4.9 8-1.7 2.2-3.6 4.1-5.8 5.8-1.8 1.4-3.8 2.6-5.7 3.4-2 .9-3.7 1.3-4.8 1.4-1.6.3-2.7.3-3.2.3H262l-.5 8 1.4.2h.1c.44 0 1.13.1 2 .1.85 0 1.73 0 2.6-.1 2.2-.2 4.6-.8 6.92-1.6 2.8-1 5.5-2.5 8.02-4.3 2.88-2 5.45-4.5 7.66-7.1 2.43-3 4.6-6.2 6.3-9.6 1.84-3.6 3.34-7.4 4.43-11.2 1.1-3.9 1.9-8 2.35-12.1.4-4.2.44-8.3.1-12.4-.3-3.8-1.04-7.8-2.2-11.8-2.14-7.4-5.83-14.2-10.4-19.1-2.1-2.3-4.47-4.2-7-5.8-2.05-1.2-4.24-2.2-6.5-2.9-1.76-.6-3.26-.8-4.5-1h-.14l-1.4-.2z" class="st0"/><path d="M264.88 108.15c-1.4-.03-2.83-.17-4.28-.42-2.2-.42-4.35-1.08-6.4-1.97-2.63-1.15-5.12-2.65-7.4-4.46-2.6-2.08-4.95-4.52-7.03-7.26-2.23-2.96-4.14-6.2-5.7-9.62-1.64-3.7-2.9-7.48-3.75-11.27-.9-4.08-1.4-8.16-1.54-12.14-.1-3.7.03-7.7.42-12 .4-4.1 1.08-8 2.04-11.6 1.1-4 2.48-7.5 4.13-10.4 1.7-3.1 3.9-5.9 6.33-8.1 1-.9 2.14-1.8 3.67-2.8 1.34-.8 2.6-1.4 3.8-1.9 2-.8 4.1-1.4 6.45-1.7 1.47-.2 2.86-.3 4.18-.3l1.54.1.1 4-1.4.1c-.92.1-2.23.3-3.7.6-1.9.5-3.65 1-5.27 1.8-2.08 1-4.1 2.4-5.85 4.1-1 1-1.9 2.1-2.66 3.2-.85 1.2-1.63 2.4-2.35 3.8-1.3 2.7-2.5 5.8-3.4 9.4-.7 3.3-1.3 6.9-1.7 10.7-.3 3.6-.4 7.4-.3 11.4.1 3.6.6 7.3 1.4 11 .7 3.5 1.8 6.9 3.2 10.3 1.4 3.3 3.1 6.2 4.9 8.7 1.9 2.6 3.9 4.8 5.9 6.6 2 1.7 4.1 3.1 6.1 4.1 1.7.9 3.5 1.5 5.3 2 1.9.4 3.1.5 3.6.6l1.4.1-.1 4H265z" class="st1"/><path d="M259.82 14.03h.1l1.42.02-1.4.1c-.92.06-2.25.24-3.92.55-1.66.36-3.65.93-5.77 1.94-2.12 1-4.33 2.5-6.38 4.5-1 1-2 2.14-2.9 3.4-.9 1.25-1.73 2.62-2.48 4.1-1.6 2.92-2.7 6.22-3.6 9.72-.9 3.5-1.5 7.22-1.8 11-.4 3.8-.5 7.7-.4 11.57.1 3.83.6 7.7 1.3 11.4.7 3.7 1.9 7.27 3.3 10.6 1.4 3.3 3.1 6.38 5 9.07 1.9 2.68 4 5.02 6.2 6.9 2.2 1.9 4.4 3.36 6.5 4.4 2.1 1.07 4 1.72 5.7 2.13 1.6.37 3 .58 3.9.65l1.4.1h-1.4c-.9 0-2.3-.1-4-.38-1.7-.32-3.7-.87-6-1.84-2.2-.96-4.6-2.33-7-4.2-2.4-1.86-4.6-4.17-6.7-6.9-2.1-2.73-4-5.84-5.5-9.23-1.5-3.4-2.8-7.07-3.7-10.9-.9-3.8-1.4-7.75-1.5-11.75-.1-3.94 0-7.9.4-11.77.4-3.8 1-7.6 2-11.2.9-3.6 2.2-7 3.9-10 1.6-3 3.7-5.6 5.9-7.6 1.1-1 2.3-1.8 3.4-2.6 1.1-.7 2.3-1.3 3.4-1.7 2.2-.9 4.3-1.3 6-1.6 1.6-.2 2.9-.2 3.9-.2m0-4c-1.4 0-2.9.1-4.4.3l-.1.1c-2.5.4-4.7 1-6.9 1.9-1.3.5-2.6 1.2-4 2l-.1.1-.1.1c-1 .7-2.5 1.7-3.9 3-2.6 2.3-5 5.3-6.8 8.7-1.7 3.1-3.1 6.7-4.2 10.9-1 3.8-1.7 7.8-2.1 12-.4 4.4-.6 8.4-.5 12.3.1 4.1.7 8.3 1.6 12.5.9 4 2.2 7.9 3.9 11.7 1.6 3.6 3.6 7 5.9 10.1 2.2 2.9 4.7 5.5 7.4 7.7 2.5 1.9 5.1 3.5 7.9 4.7 2.2 1 4.5 1.7 6.8 2.1h.1c1.5.3 3.1.5 4.6.5h1.5l.3-8-1.4-.1c-.4 0-1.5-.1-3.3-.5-1.7-.4-3.3-1-4.9-1.8-1.9-.9-3.9-2.2-5.7-3.8-1.9-1.6-3.8-3.7-5.6-6.2-1.7-2.4-3.3-5.2-4.6-8.3-1.4-3.2-2.4-6.5-3.1-9.8-.8-3.6-1.2-7.2-1.3-10.7-.1-3.9 0-7.6.3-11.1.4-3.8.9-7.3 1.7-10.4.9-3.4 1.9-6.4 3.2-8.9.7-1.3 1.4-2.5 2.2-3.5h.1c.7-1 1.5-2 2.4-2.9 1.6-1.5 3.4-2.8 5.3-3.7 1.5-.7 3.1-1.2 4.8-1.6 1.8-.4 2.9-.5 3.4-.5l1.4-.1-.2-8h-1.6z" class="st0"/><path d="M253.9 110.7c-.96 0-1.93-.03-2.9-.12-22.25-2.1-38.42-27.6-36.05-56.8 1.42-17.57 8.8-33.14 20.23-42.72C242.24 5.13 250.35 2 258.63 2c1.04 0 2.1.05 3.15.15l2 .2-.9 9.47C282.2 15.05 296 37.66 293.9 63.45c-1.3 16-8.02 30.2-18.46 38.95-6.48 5.44-13.93 8.32-21.54 8.32zM245 18.64c-.72.5-1.42 1.05-2.1 1.62-8.87 7.43-14.84 20.33-16 34.5-1.83 22.7 9.48 42.4 25.23 43.88.58.05 1.16.08 1.74.08 4.77 0 9.57-1.9 13.86-5.5 7.87-6.6 13.2-18.1 14.2-30.73 1.27-15.5-4.44-30-14-36.1l-.16.2-2.66-1.7-.5-.3c-1.6-.7-3.2-1.1-4.9-1.2l-1.1-.1c-1 0-2 .2-2.9.6-1.6.6-3.1 1.6-4.4 3-.6.7-1.2 1.5-1.8 2.5-.5.9-.9 1.9-1.1 2.9-.5 2-.2 4.2.7 6 .5.9 1.2 1.9 2.1 2.7.4.4.9.8 1.4 1.2l.2.1.5.3.7.4c1 .4 1.9.6 2.9.6 1.1 0 2.2-.3 3.2-.8s1.8-1.2 2.4-2.1l.5-.7.1-.2.3-.6.1-.3.2-.4.1-.3c.1-.2.1-.3.1-.4l.1-.2c.4-2-.1-4.2-1.3-5.8l-.2-.3-.2-.3-.5-.5-.5-.4-.2-.1-.2-.2-.1-.1h-.1c-.5-.3-1.2-.5-1.8-.5h-.4c-1.6.1-2.8 1.2-3.4 2.2-.8 1.4-.5 2.7-.3 3.2.3 1 .8 1.6 1.1 1.9l.4.3.3.2-2.3 3.3-.3-.2c-.2-.1-.5-.3-.9-.6-.7-.7-1.8-1.8-2.4-3.6-.4-1-1.1-3.7.3-6.7 1.3-2.8 4-4.8 7-5.3.6-.1 1.1-.1 1.6-.1 1.3 0 2.5.2 3.7.7l.8.3.3.1h.1c.3.1.5.3.7.4l.3.2.3.3.7.5.4.4c.3.2.5.4.7.6 2.5 2.8 3.8 6.7 3.3 10.5-.1.9-.3 1.9-.7 3l-.4.9-.2.33-.1.13c-.2.42-.4.9-.7 1.3-1.1 1.8-2.7 3.3-4.4 4.4-2.2 1.4-4.9 2.2-7.6 2.2-1.8 0-3.5-.3-5.1-.9l-1.5-.6-.5-.3-.4-.28-.3-.2c-.9-.6-1.7-1.2-2.5-1.8-1.6-1.37-3-2.96-4-4.7-2.1-3.5-3-7.9-2.3-12.1.3-1.9.9-3.8 1.7-5.57.8-1.7 1.7-3.3 2.8-4.63.5-.6 1.1-1.2 1.6-1.8z" class="st1"/><path d="M258.63 4c.98 0 1.97.05 2.96.14l-.8 7.97c-.7 0-1.5-.1-2.2-.1-6 0-11.8 2.3-17.1 6.8-9.3 7.8-15.5 21.2-16.7 35.9-2 23.8 10.2 44.5 27 46.1.6.1 1.3.1 1.9.1 5.2 0 10.4-2 15.1-5.9 8.3-6.9 13.8-18.9 14.9-32.1C285.1 45.3 278 29.7 267 24l-.1.2-1-.6c-.16-.1-.4-.25-.74-.4-1.77-.7-3.6-1.2-5.54-1.36v-.2h-.53c-1.4 0-2.9.2-4.5.8-1.9.65-3.7 1.8-5.3 3.5-.8.8-1.5 1.8-2.1 2.9-.6 1.04-1.1 2.2-1.3 3.4-.6 2.4-.4 5.06.8 7.4.6 1.2 1.4 2.3 2.4 3.28.5.5 1 .93 1.6 1.35l.2.17v.02l.2.05.4.3.8.4c1.1.6 2.4.8 3.7.8 1.4 0 2.8-.3 4-1 1.2-.6 2.2-1.5 3-2.6l.6-.8.1-.1v.1l.1-.3.2-.5c.1-.3.2-.5.3-.8.1-.3.2-.6.3-1 .5-2.6-.2-5.4-1.8-7.4-.2-.3-.4-.5-.6-.7l-.4-.9-.7-.6c-.2-.1-.6-.4-.8-.5-.8-.4-1.8-.6-2.7-.6h-.5c-2.3.2-4.1 1.7-5 3.3-.9 1.7-.9 3.5-.5 4.8.4 1.4 1.1 2.3 1.6 2.8.3.3.5.4.7.6l.2.2-.3-.1c-.2-.1-.4-.2-.7-.5-.6-.5-1.4-1.3-1.9-2.7-.5-1.3-.7-3.3.2-5.2.9-1.9 2.8-3.7 5.5-4.1.4-.1.8-.1 1.2-.1 1 0 1.9.2 2.9.6.4.1.6.3.9.4l1 .6.9.7c.3.3.6.6.8.9 2.1 2.3 3.3 5.6 2.9 9-.1.8-.3 1.7-.6 2.6l-.2.6-.1.3v.4c-.1.4-.4.8-.6 1.2-1 1.5-2.3 2.8-3.8 3.8-1.9 1.2-4.2 1.8-6.6 1.8-1.5 0-3-.2-4.4-.7-.5-.1-.9-.3-1.4-.6l-.6-.3-.3-.2-.3-.2c-.8-.5-1.5-1-2.2-1.6-1.4-1.2-2.7-2.6-3.7-4.2-2-3.2-2.7-7.2-2.1-10.7.3-1.8.8-3.4 1.5-5 .7-1.5 1.55-2.9 2.6-4.2 2-2.6 4.6-4.5 7.3-5.7 2.66-1.2 5.4-1.8 7.8-1.8h.5l.05-.6C280 15.7 294 38 292 63.6c-1.3 15.5-7.77 29.2-17.8 37.6-6.17 5.15-13.1 7.84-20.3 7.84-.9 0-1.8-.06-2.7-.15-21.14-2-36.5-26.5-34.2-54.7 1.4-17.1 8.5-32.1 19.5-41.4 6.9-5.8 14.5-8.7 22.3-8.7m0-4c-8.8 0-17.35 3.3-24.8 9.5-11.9 9.9-19.5 26-21 44.1-2.43 30.3 14.55 56.7 37.88 58.9 1 .1 2 .1 3.1.1 8.1 0 15.9-3 22.8-8.7 10.8-9.1 17.8-23.8 19.2-40.3 2.1-26-11.5-48.9-30.8-53.4l.6-5.7.4-3.9-4-.4c-1.1-.1-2.2-.2-3.4-.2zM254 96.8h-1.56c-6.85-.7-13.06-5.2-17.5-12.8-4.7-8-6.8-18.3-5.94-29 .73-9.24 3.6-17.9 8-24.75v.22c-.8 4.6.2 9.5 2.6 13.4 1.2 1.9 2.7 3.62 4.5 5.2.8.62 1.7 1.3 2.7 1.9l.3.2.1.04h.1l.3.2h.1l.1.1.6.3c.56.3 1.1.5 1.7.7 1.8.7 3.73 1 5.7 1 3.1 0 6.2-.9 8.76-2.5 2-1.3 3.74-3 5.04-5 .3-.5.6-1 .84-1.5l.08-.2v-.1l.06-.1.03-.1.1-.1.1-.1v-.1l.1-.3.2-.5.1-.1.1-.1c.4-1.2.7-2.4.8-3.5.4-2.8-.1-5.8-1.4-8.4 6.7 6.8 10.5 18.7 9.5 31.3-.9 12.1-6 23.1-13.5 29.4-3.9 3.3-8.2 5.1-12.5 5.1zm2.57-60.53c-.12-.18-.4-.5-.55-1.07-.1-.26-.25-1 .15-1.7.3-.56 1.03-1.14 1.8-1.2h.2c.3 0 .66.1.93.23l.18.1.08.07.15.1.3.24v.05l.2.1.2.2.2.2.2.1v.1c.9 1.2 1.3 2.8 1 4.2v1.1l-.2.5-.3.5c-.5.6-1.1 1.1-1.8 1.5-.7.3-1.4.5-2.2.5-.7 0-1.4-.2-2-.5h-.1l-.4-.2-.1-.1-.1-.1 3-4.5-.2-.2-.1-.1-.1-.2z" class="st0"/><path d="M30.92 109.4V68.35h-5.9v41.07H8.7V12.97H25V53h5.9V12.95h16.3v96.46z" class="st1"/><path d="M45.2 14.96v92.45H32.92v-41h-9.9v41.1H10.7V15H23v40h9.9V14.95h12.3m4-4H28.92v40.02h-1.9v-40H6.7V111.4H27V70.34h1.9v41.07h20.3V11z" class="st0"/><path d="M74.43 109.4l-1.7-19h-6.66l-1.72 19h-16.5l11.98-96.44h19.12l12 96.45H74.42zm-3.3-34.37c-.63-6.42-1.26-13.23-1.86-20.4-.6 6.78-1.2 13.68-1.7 20.4h3.57z" class="st1"/><path d="M77.2 14.96l11.48 92.45H76.26l-1.7-19H64.23l-1.7 19H50.1L61.6 15h15.6M65.42 77.03h7.93C71.75 61.58 70.45 45.2 69.4 30c-1.2 15.47-2.9 31.58-3.97 47.03m15.3-66.07H58.06l-.44 3.5-11.5 92.46-.55 4.5h20.6l.33-3.64 1.4-15.38h3l1.38 15.38.33 3.64h20.6l-.5-4.5-11.5-92.45-.4-3.5z" class="st0"/><path d="M117.64 109.4L106.5 63.78c.1 4.9.18 9.78.18 14.45v31.2h-15.1V12.95h15.33l11 45.4c-.1-4.5-.1-9.23-.1-14.08V12.95h15.1v96.46h-15.2z" class="st1"/><path d="M130.83 14.96v92.45H119.2l-15.58-63.7c.66 10.9 1.06 23 1.06 34.6v29.2h-11.1V15h11.76l15.46 63.9c-.8-11.1-1.1-23.5-1.1-34.6V14.94h11.1m4-4h-19.1v30L109.22 14l-.73-3.06H89.6V111.4h19.08V81.18l6.64 27.2.74 3.04h18.76V10.97z" class="st0"/><path d="M135.94 109.4V12.97h19.97c16.3 0 18.4 9.75 18.4 18.24v60c0 9.1-2.1 18.3-18.1 18.3H136zm19.7-15.6c1.96 0 2.36-.42 2.36-2.5V31.34c0-2.18-.42-2.62-2.5-2.62h-3.27V93.8h3.4z" class="st1"/><path d="M155.9 14.96c13.08 0 16.38 6.2 16.38 16.24v59.97c0 10.3-3.17 16.24-16.1 16.24h-18.23V15h17.97m-5.68 80.83h5.42c3.3 0 4.36-1.6 4.36-4.5V31.35c0-3.17-1.2-4.62-4.5-4.62h-5.27V95.8m5.68-84.84h-21.97V111.4h22.23c17.8 0 20.1-10.8 20.1-20.23V31.2c0-8.7-2.1-20.24-20.4-20.24zm-1.68 19.75h1.3c.18 0 .33.1.46.1.1.2.1.4.1.6v60.4h-1.7V30.7z" class="st0"/><path d="M195.13 110.73c-12.64 0-19.04-6.18-19.04-18.37V77.68h16.2v14.54c0 3.28 1.3 3.55 2.7 3.55 1.5 0 2.7-.26 2.7-3.55v-10.3c0-11.48-4.6-15.02-9.8-19.1-5.7-4.4-12.1-9.4-12.1-24.62v-8.05c0-12.1 6.6-18.5 19-18.5s19.1 6.4 19.1 18.5v13.22h-16.2v-13.2c0-2.9-.9-3.43-2.8-3.43-1.5 0-2.8.26-2.8 3.42v7.66c0 8.97 3.8 11.86 8.6 15.53 6.2 4.7 13.2 10.03 13.2 28.33v10.7c0 12.2-6.5 18.37-19.1 18.37z" class="st1"/><path d="M195.13 13.64c12.94 0 17.04 7 17.04 16.5V41.4h-12.3V30.14c0-3.17-1.05-5.42-4.75-5.42-3.56 0-4.75 2.25-4.75 5.42v7.66c0 21.93 21.8 12.16 21.8 43.86v10.7c0 9.5-4.1 16.37-17.05 16.37-12.94 0-17.03-6.86-17.03-16.37V79.68h12.2v12.54c0 3.17 1.2 5.55 4.7 5.55 3.7 0 4.7-2.38 4.7-5.55v-10.3c0-25.5-21.8-15.85-21.8-43.72v-8.05c0-9.5 4.1-16.5 17-16.5m0-4c-13.6 0-21.1 7.27-21.1 20.5v8.06c0 16.2 7.1 21.8 12.8 26.2 5 4 9 7 9 17.6v10.3c0 .9-.1 1.3-.2 1.5-.1.1-.3.1-.6.1h-.6c-.1-.1-.2-.6-.2-1.5V75.7h-20v16.68c0 13.33 7.2 20.38 21 20.38 13.7 0 21-7.05 21-20.38v-10.7c0-19.3-7.8-25.2-14-29.93-2.8-2.08-5-3.75-6.3-6.36H216V30.1c0-13.23-7.47-20.5-21.03-20.5zm-.6 19.14c.1-.1.3-.1.6-.1h.6c0 .2.1.6.1 1.3v15.2c-1-1.9-1.5-4.2-1.5-7.6V30c0-.8.1-1.2.1-1.35z" class="st0"/></svg>